<?xml version="1.0" encoding="UTF-8"?>
<svg width="410px" height="1051px" viewBox="0 0 410 1051" version="1.1" xmlns="http://www.w3.org/2000/svg" xmlns:xlink="http://www.w3.org/1999/xlink">
    <!-- Generator: Sketch 47 (45396) - http://www.bohemiancoding.com/sketch -->
    <title>ALIEN</title>
    <desc>Created with Sketch.</desc>
    <defs>
        <linearGradient x1="57.9639067%" y1="3.95215615%" x2="282.865374%" y2="38.6225163%" id="linearGradient-1">
            <stop stop-color="#D1D1D1" offset="0%"></stop>
            <stop stop-color="#303030" stop-opacity="0.0738507699" offset="100%"></stop>
        </linearGradient>
        <linearGradient x1="50%" y1="92.0732539%" x2="50%" y2="4.27145988%" id="linearGradient-2">
            <stop stop-color="#A3A3A3" offset="0%"></stop>
            <stop stop-color="#BABABA" offset="100%"></stop>
        </linearGradient>
        <linearGradient x1="50%" y1="0%" x2="50%" y2="98.6308195%" id="linearGradient-3">
            <stop stop-color="#E3E3E3" offset="0%"></stop>
            <stop stop-color="#D1D1D1" offset="61.4351483%"></stop>
            <stop stop-color="#D1D1D1" offset="61.4351483%"></stop>
            <stop stop-color="#C5C5C5" offset="100%"></stop>
        </linearGradient>
        <path d="M60.3427415,324.271999 C54.2798794,285.539222 37.5434563,281.41871 26.5702075,241.417301 C15.5969587,201.415891 -3.42154056,142.725842 18.15944,97.448656 C39.7404206,52.1714696 86.9794093,-6.46870273 210.009639,1.7834904 C333.03987,10.0356835 374.316934,45.9619192 397.984698,104.436755 C421.652462,162.91159 391.909927,237.193489 364.513245,272.748445 C337.116562,308.303401 340.00899,378.496212 302.462253,411.703807 C264.915516,444.911402 267.769336,474.500803 193.125419,470.746672 C118.481501,466.992542 104.132346,419.468082 86.9794093,397.078295 C69.826473,374.688508 66.4056037,363.004775 60.3427415,324.271999 Z" id="path-4"></path>
        <filter x="-1.4%" y="-0.7%" width="102.8%" height="102.3%" filterUnits="objectBoundingBox" id="filter-5">
            <feOffset dx="0" dy="2" in="SourceAlpha" result="shadowOffsetOuter1"></feOffset>
            <feGaussianBlur stdDeviation="1.5" in="shadowOffsetOuter1" result="shadowBlurOuter1"></feGaussianBlur>
            <feColorMatrix values="0 0 0 0 0   0 0 0 0 0   0 0 0 0 0  0 0 0 0.5 0" type="matrix" in="shadowBlurOuter1"></feColorMatrix>
        </filter>
        <radialGradient cx="50%" cy="16.5484518%" fx="50%" fy="16.5484518%" r="100%" gradientTransform="translate(0.500000,0.165485),scale(1.000000,0.692504),rotate(90.000000),translate(-0.500000,-0.165485)" id="radialGradient-6">
            <stop stop-color="#D17D7D" offset="0%"></stop>
            <stop stop-color="#1B0303" offset="100%"></stop>
        </radialGradient>
        <path d="M56.9279856,158.542471 C50.6952748,55.4906613 141.215395,80.3589778 162.298086,126.740064 C183.380776,173.12115 165.670624,218.827779 141.215395,240.431422 C122.632521,256.847452 106.716168,261.116003 84.4638988,225.840871 C76.5531553,213.300464 58.8923011,191.020517 56.9279856,158.542471 Z" id="path-7"></path>
        <filter x="-6.5%" y="-3.3%" width="113.0%" height="109.0%" filterUnits="objectBoundingBox" id="filter-8">
            <feMorphology radius="0.5" operator="dilate" in="SourceAlpha" result="shadowSpreadOuter1"></feMorphology>
            <feOffset dx="0" dy="2" in="shadowSpreadOuter1" result="shadowOffsetOuter1"></feOffset>
            <feGaussianBlur stdDeviation="2" in="shadowOffsetOuter1" result="shadowBlurOuter1"></feGaussianBlur>
            <feComposite in="shadowBlurOuter1" in2="SourceAlpha" operator="out" result="shadowBlurOuter1"></feComposite>
            <feColorMatrix values="0 0 0 0 0   0 0 0 0 0   0 0 0 0 0  0 0 0 0.5 0" type="matrix" in="shadowBlurOuter1"></feColorMatrix>
        </filter>
        <radialGradient cx="45.3444443%" cy="16.874%" fx="45.3444443%" fy="16.874%" r="100%" gradientTransform="translate(0.453444,0.168740),scale(1.000000,0.744026),rotate(84.030501),translate(-0.453444,-0.168740)" id="radialGradient-9">
            <stop stop-color="#D17D7D" offset="0%"></stop>
            <stop stop-color="#1B0303" offset="100%"></stop>
        </radialGradient>
        <path d="M331.935908,181.432726 C352.939772,82.2451278 253.103554,77.7292117 225.279179,119.908577 C197.454803,162.087942 212.627485,212.675991 225.279179,243.961454 C232.845525,262.671727 255.139417,275.203236 282.550901,243.961454 C292.295759,232.854914 325.316282,212.692919 331.935908,181.432726 Z" id="path-10"></path>
        <filter x="-6.0%" y="-3.3%" width="112.0%" height="108.9%" filterUnits="objectBoundingBox" id="filter-11">
            <feMorphology radius="0.5" operator="dilate" in="SourceAlpha" result="shadowSpreadOuter1"></feMorphology>
            <feOffset dx="0" dy="2" in="shadowSpreadOuter1" result="shadowOffsetOuter1"></feOffset>
            <feGaussianBlur stdDeviation="2" in="shadowOffsetOuter1" result="shadowBlurOuter1"></feGaussianBlur>
            <feComposite in="shadowBlurOuter1" in2="SourceAlpha" operator="out" result="shadowBlurOuter1"></feComposite>
            <feColorMatrix values="0 0 0 0 0   0 0 0 0 0   0 0 0 0 0  0 0 0 0.5 0" type="matrix" in="shadowBlurOuter1"></feColorMatrix>
        </filter>
        <linearGradient x1="96.580146%" y1="100.652229%" x2="103.366026%" y2="3.60962117%" id="linearGradient-12">
            <stop stop-color="#D9D9D9" offset="0%"></stop>
            <stop stop-color="#676668" offset="100%"></stop>
        </linearGradient>
        <linearGradient x1="102.405899%" y1="94.5979831%" x2="97.3146789%" y2="-2.54827455%" id="linearGradient-13">
            <stop stop-color="#D9D9D9" offset="0%"></stop>
            <stop stop-color="#676668" offset="100%"></stop>
        </linearGradient>
        <linearGradient x1="76.1151254%" y1="0%" x2="76.1151247%" y2="100%" id="linearGradient-14">
            <stop stop-color="#D9D9D9" offset="0%"></stop>
            <stop stop-color="#676668" offset="100%"></stop>
        </linearGradient>
        <linearGradient x1="100%" y1="97.2795759%" x2="100%" y2="0%" id="linearGradient-15">
            <stop stop-color="#D9D9D9" offset="0%"></stop>
            <stop stop-color="#A8A8A8" offset="100%"></stop>
        </linearGradient>
        <linearGradient x1="54.1496312%" y1="2.56949883%" x2="45.7615448%" y2="98.4457646%" id="linearGradient-16">
            <stop stop-color="#DFDFDF" offset="0%"></stop>
            <stop stop-color="#C5C5C5" offset="100%"></stop>
        </linearGradient>
        <linearGradient x1="66.2841529%" y1="5.25965754%" x2="33.3672801%" y2="95.6980222%" id="linearGradient-17">
            <stop stop-color="#DFDFDF" offset="0%"></stop>
            <stop stop-color="#C5C5C5" offset="100%"></stop>
        </linearGradient>
        <linearGradient x1="226.19845%" y1="34.8401303%" x2="27.7769038%" y2="10.0467226%" id="linearGradient-18">
            <stop stop-color="#7D7D7D" offset="0%"></stop>
            <stop stop-color="#AAAAAA" offset="100%"></stop>
        </linearGradient>
        <linearGradient x1="226.620186%" y1="40.9986025%" x2="29.1847908%" y2="9.29548617%" id="linearGradient-19">
            <stop stop-color="#7D7D7D" offset="0%"></stop>
            <stop stop-color="#AAAAAA" offset="100%"></stop>
        </linearGradient>
        <linearGradient x1="69.7521962%" y1="87.1484782%" x2="28.5317508%" y2="9.62409557%" id="linearGradient-20">
            <stop stop-color="#A3A3A3" offset="0%"></stop>
            <stop stop-color="#B9B9B9" offset="60.4021286%"></stop>
            <stop stop-color="#C7C7C7" offset="100%"></stop>
        </linearGradient>
        <linearGradient x1="215.011767%" y1="113.614716%" x2="47.5403775%" y2="4.34826798%" id="linearGradient-21">
            <stop stop-color="#7D7D7D" offset="0%"></stop>
            <stop stop-color="#AAAAAA" offset="100%"></stop>
        </linearGradient>
        <linearGradient x1="209.062613%" y1="-27.2968349%" x2="14.9349783%" y2="20.6644476%" id="linearGradient-22">
            <stop stop-color="#7D7D7D" offset="0%"></stop>
            <stop stop-color="#AAAAAA" offset="100%"></stop>
        </linearGradient>
        <linearGradient x1="187.597844%" y1="-61.0970244%" x2="9.2346291%" y2="29.3042295%" id="linearGradient-23">
            <stop stop-color="#7D7D7D" offset="0%"></stop>
            <stop stop-color="#AAAAAA" offset="100%"></stop>
        </linearGradient>
    </defs>
    <g id="Page-1" stroke="none" stroke-width="1" fill="none" fill-rule="evenodd">
        <path d="M124.415007,725.335733 C152.064264,730.499306 174.861237,743.232479 184.123597,757.514702 C193.385958,771.796926 182.717604,804.532803 176.584819,825.661469 C170.452034,846.790134 165.076893,862.96377 168.425974,871.684242 C171.775055,880.404714 175.370304,888.299138 176.584819,909.211772 C177.030849,916.89193 174.174784,934.498392 175.462071,944.349294 C176.169893,949.765866 179.978738,949.72273 179.611641,954.511415 C179.493497,956.052558 175.764942,960.331809 168.425974,967.34917 C163.812029,968.623584 159.777988,968.623584 156.323851,967.34917 C151.142647,965.43755 156.537788,947.386208 142.126103,920.332832 C140.470717,917.225369 136.16326,898.48884 134.132919,886.780118 C133.491529,883.081309 128.49609,872.114879 127.564716,868.874665 C126.177745,864.049445 124.400699,853.833797 123.240181,848.889177 C119.852605,834.455727 117.927032,825.66842 116.41513,817.535791 C112.413181,796.00901 96.7657507,720.17216 124.415007,725.335733 Z" id="Path-12" fill="url(#linearGradient-1)"></path>
        <path d="M151.635221,958.56714 C155.953138,948.224595 165.818961,932.631192 168.403919,950.363569 C170.988877,968.095945 168.551761,1011.4191 171.749428,1022.27314 C175.378566,1034.59175 183.071404,1036.38594 182.602899,1042.00499 C182.232995,1046.44147 177.906349,1049.84539 173.675953,1050.2336 C164.087526,1051.11351 164.736814,1050.10662 162.375906,1044.04202 C160.014998,1037.97743 171.749428,1032.34742 151.635221,1027.60627 C145.270476,1026.10602 137.850403,1028.56741 133.214346,1036.3875 C129.884078,1042.00499 133.485644,1039.89463 129.884078,1047.02514 C126.282512,1054.15565 112.60479,1050.00826 111.252869,1047.02514 C109.900948,1044.04202 104.897164,1040.42759 111.252869,1036.3875 C117.608575,1032.34742 120.121898,1036.18899 122.476709,1027.60627 C124.18187,1024.05085 121.684296,1022.27314 114.983988,1022.27314 C104.933526,1022.27314 94.1000862,1028.30733 92.4189489,1032.34742 C90.7378115,1036.3875 91.2087738,1041.05891 84.856117,1044.04202 C81.9304666,1045.41587 77.9866524,1044.28998 73.4310892,1042.00499 C70.1192392,1040.34382 66.8748129,1026.55544 79.3249769,1027.60627 C85.4063351,1028.11955 99.0476483,1016.71623 106.334438,1012.49395 C141.940104,991.862516 138.297386,1004.32615 141.616984,987.972661 C144.936583,971.619171 147.317305,968.909685 151.635221,958.56714 Z" id="Path-13" fill="url(#linearGradient-2)"></path>
        <path d="M208.39024,755.731361 C219.951455,745.225109 273.025142,714.10033 279.521984,729.094262 C286.018826,744.088193 276.926139,800.481999 266.777613,821.853882 C256.629088,843.225765 248.182554,859.557798 249.851835,868.618682 C251.521116,877.679567 253.593541,885.905156 250.805654,907.355873 C250.249556,911.634635 247.875986,920.979298 242.301092,943.268357 C241.455856,946.647704 241.455856,952.838035 242.301092,961.839351 C232.728322,970.603471 223.411991,968.999604 214.352098,957.02775 C211.882056,953.763805 219.348982,946.629024 220.817205,937.003376 C221.718337,931.095575 217.845471,928.083368 214.352098,917.330133 C213.297052,914.08251 212.587769,894.732479 212.803461,882.66737 C212.871598,878.855978 209.991573,867.429469 209.683162,864.075547 C209.223885,859.080997 209.406485,848.554179 209.195625,843.446684 C208.580121,828.537799 208.341707,819.466624 208.39024,811.082307 C208.518703,788.889316 196.829024,766.237613 208.39024,755.731361 Z" id="Path-12" fill="url(#linearGradient-1)"></path>
        <path d="M239.589294,958.56714 C235.010811,948.224595 224.549633,932.631192 221.808684,950.363569 C219.067736,968.095945 221.65192,1011.4191 218.26129,1022.27314 C214.41315,1034.59175 206.256086,1036.38594 206.752862,1042.00499 C207.145088,1046.44147 211.732827,1049.84539 216.218507,1050.2336 C226.385551,1051.11351 225.697082,1050.10662 228.20046,1044.04202 C230.703837,1037.97743 218.26129,1032.34742 239.589294,1027.60627 C246.338122,1026.10602 254.205962,1028.56741 259.121783,1036.3875 C262.653016,1042.00499 258.834113,1039.89463 262.653016,1047.02514 C266.47192,1054.15565 280.975028,1050.00826 282.408531,1047.02514 C283.842034,1044.04202 289.147773,1040.42759 282.408531,1036.3875 C275.669289,1032.34742 273.004298,1036.18899 270.507385,1027.60627 C268.699326,1024.05085 271.347616,1022.27314 278.452256,1022.27314 C289.109217,1022.27314 300.596404,1028.30733 302.37899,1032.34742 C304.161576,1036.3875 303.662193,1041.05891 310.398203,1044.04202 C313.500403,1045.41587 317.682208,1044.28998 322.512678,1042.00499 C326.024382,1040.34382 329.464594,1026.55544 316.263121,1027.60627 C309.814782,1028.11955 295.35028,1016.71623 287.623767,1012.49395 C249.869466,991.862516 253.732005,1004.32615 250.212085,987.972661 C246.692164,971.619171 244.167776,968.909685 239.589294,958.56714 Z" id="Path-13" fill="url(#linearGradient-2)"></path>
        <path d="M99.0534636,691.189109 C81.2498104,617.081338 96.3294876,524.990881 71.7965133,505.351148 C47.2635391,485.711415 34.2285054,480.675709 44.7824045,466.018977 C51.8183373,456.247823 96.7815963,444.961258 179.672182,432.159284 C208.578408,439.276032 235.398867,442.834406 260.13356,442.834406 C297.235598,442.834406 367.252005,475.650344 367.433551,494.212024 C367.615098,512.773704 336.218889,495.591173 324.327598,525.029212 C312.436306,554.467251 282.01879,703.62911 282.01879,733.862512 C282.01879,748.351576 280.737071,752.368797 276.106117,752.068452 C273.227107,751.881732 249.375531,756.359926 238.699967,763.058413 C232.203642,767.134596 225.288653,773.460512 221.125108,775.672871 C216.961563,777.885231 198.256485,800.661815 173.088098,785.914048 C147.919711,771.16628 161.040743,779.729497 129.561371,753.626995 C117.972772,744.0178 111.780683,744.815883 109.481138,743.751149 C105.534179,741.923631 110.303002,738.015355 99.0534636,691.189109 Z" id="Path-11" fill="url(#linearGradient-3)"></path>
        <path d="M99.5707043,683.759133 C81.767051,612.476113 96.8467282,523.895849 72.313754,505.004719 C47.7807797,486.11359 81.8114647,511.142275 87.2383833,512.881523 C90.3061308,513.864691 86.8094274,533.859368 102.51335,558.679539 C106.433549,564.875444 122.64226,574.643841 139.888176,575.418768 C155.620685,576.125691 173.064381,564.170071 191.561123,564.473455 C230.333924,565.109409 204.378781,577.832472 247.443912,577.832472 C272.026877,577.832472 276.533822,574.248386 294.760987,552.502265 C308.464683,536.152919 343.066708,496.852906 351.342629,500.5634 C370.62628,509.209187 336.736129,495.616763 324.844838,523.932718 C312.953547,552.248674 282.536031,695.724961 282.536031,724.805964 C282.536031,753.886966 264.993893,737.882633 241.374702,751.008258 C217.755512,764.133883 206.019404,785.55423 180.851017,771.3686 C155.68263,757.18297 176.14848,769.641348 144.669108,744.53379 C123.380401,727.554179 120.114854,728.950382 113.616408,715.669858 C110.505675,709.312622 105.334194,706.835239 99.5707043,683.759133 Z" id="Path-11" fill="#CFCFCF"></path>
        <g id="Path">
            <use fill="black" fill-opacity="1" filter="url(#filter-5)" xlink:href="#path-4"></use>
            <use fill="#D8D8D8" fill-rule="evenodd" xlink:href="#path-4"></use>
        </g>
        <path d="M79.0454719,75.0541113 C99.2264865,75.0855044 154.601944,82.7161147 165.41328,93.7685701 C176.224616,104.821026 181.016977,126.582706 180.889707,166.8077 C180.80486,193.624363 162.538011,221.570478 126.089157,250.646047 L101.622667,184.756168 C81.0561859,194.298267 70.0802769,199.069317 68.6949396,199.069317 C66.6169337,199.069317 35.8242646,153.367278 35.9164254,140.048242 C35.9778659,131.168885 39.02868,118.631188 45.0688677,102.435152 C54.2659275,84.1601961 65.5914622,75.0331826 79.0454719,75.0541113 Z" id="Path-3" fill-opacity="0.5" fill="#B5B4B6"></path>
        <path d="M273.774426,88.2708666 C216.494312,101.525023 224.654929,92.3561522 213.843593,103.408608 C203.032257,114.461063 205.121886,129.79179 205.249155,170.016784 C205.334002,196.833447 223.600852,224.779563 260.049705,253.855132 L284.516196,187.965252 C290.918741,214.816502 294.812682,228.242126 296.198019,228.242126 C298.276025,228.242126 368.239216,191.338519 367.427324,159.99358 C366.886062,139.096954 363.751864,118.091645 358.024731,96.9776548 C340.044603,82.337025 311.961168,79.4347623 273.774426,88.2708666 Z" id="Path-3" fill-opacity="0.5" fill="#B5B4B6"></path>
        <path d="M59.7073063,232.82179 C72.0161337,250.562341 69.0957043,257.080542 100.779261,267.740164 C111.527928,271.356448 131.921337,262.862891 142.791407,254.342915 C168.606975,234.108637 183.254342,202.178352 180.002415,205.453478 C175.656104,209.830795 145.638765,248.013295 123.154579,236.737106 C104.334444,227.298499 74.6735575,208.313425 69.4587936,205.453478 C63.5078409,202.189781 50.7655172,219.934106 59.7073063,232.82179 Z" id="Path-4" fill-opacity="0.5" fill="#B5B4B6" opacity="0.768568841"></path>
        <path d="M323.096897,230.483371 C318.634578,249.752234 313.183032,254.635111 281.499475,265.448979 C270.750807,269.117591 241.290534,274.092239 230.420465,265.448979 C204.604896,244.921908 199.149469,203.572096 202.401396,206.894614 C206.747707,211.335272 226.583475,265.948895 249.067661,254.509538 C267.887796,244.934353 301.084736,226.09523 306.2995,223.193899 C312.250452,219.882976 326.247922,216.876848 323.096897,230.483371 Z" id="Path-4" fill-opacity="0.5" fill="#B5B4B6" opacity="0.768568841"></path>
        <g id="Path-2">
            <use fill="black" fill-opacity="1" filter="url(#filter-8)" xlink:href="#path-7"></use>
            <use stroke="#979797" stroke-width="1" fill="url(#radialGradient-6)" fill-rule="evenodd" xlink:href="#path-7"></use>
        </g>
        <g id="Path-2">
            <use fill="black" fill-opacity="1" filter="url(#filter-11)" xlink:href="#path-10"></use>
            <use stroke="#979797" stroke-width="1" fill="url(#radialGradient-9)" fill-rule="evenodd" xlink:href="#path-10"></use>
        </g>
        <path d="M163.586166,282.141584 C172.440734,264.806818 184.178429,275.950694 185.326908,290.63017 C185.663958,294.938235 184.540955,300.285414 184.280848,304.898015 C184.060342,308.808354 183.633929,314.624471 183.001608,322.346366 L170.960879,310.0716 C160.141358,303.0081 157.68312,293.698095 163.586166,282.141584 Z" id="Path-5" fill="url(#linearGradient-12)" opacity="0.768568841"></path>
        <path d="M212.43219,284.769296 C205.858586,266.534521 192.784465,276.230991 189.768864,290.667554 C188.88386,294.90433 189.315252,300.342185 188.984041,304.950638 C188.703257,308.857461 188.383333,314.67979 188.024269,322.417625 L201.543666,311.633919 C213.185085,305.880686 216.814593,296.925812 212.43219,284.769296 Z" id="Path-5" fill="url(#linearGradient-13)" opacity="0.768568841"></path>
        <path d="M153.966634,285.696779 C153.585715,287.12011 153.31872,288.169263 153.165648,288.844238 C151.52592,296.074646 151.792916,301.433866 153.966634,304.921898 C157.683785,310.886583 169.38162,326.511963 177.687061,323.690772 C181.678313,322.335024 178.194051,356.143851 187.61512,352.924288 C190.938831,351.788441 186.335859,335.33722 191.206617,328.903476 C195.66895,323.009216 194.131454,349.970928 200.015312,346.307696 C204.042604,343.800343 212.29355,346.307696 229.260107,346.307696 C235.469106,346.307696 239.142956,349.466841 239.037456,346.307696 C238.675957,335.482834 222.260399,306.469301 222.477196,306.104371 C225.650159,300.763362 265.36914,377.866945 258.713816,366.132213 C252.058492,354.397481 213.536543,349.100963 209.313566,349.123349 C204.740692,349.14759 195.743411,355.959951 187.61512,357.657462 C181.056936,359.027072 175.785422,355.778037 168.279438,352.924288 C165.272438,351.781038 136.587629,349.123349 127.889407,366.132213 C126.333498,369.174703 128.072614,345.766456 135.141582,323.690772 C141.135065,304.973721 152.461881,287.409916 153.165648,285.696779" id="Path-6" fill-opacity="0.5" fill="#C1C1C1"></path>
        <path d="M165.321475,272.393642 C170.450877,270.102776 174.59766,269.128509 177.761823,269.47084 C180.925987,269.813171 183.710748,271.212035 186.116107,273.667433 L190.202171,219.870934 C183.784563,239.83693 180.575759,250.523831 180.575759,251.931636 C180.575759,253.339441 177.337133,257.822867 170.859879,265.381916 L165.321475,272.393642 Z" id="Path-7" fill-opacity="0.5" fill="#C1C1C1"></path>
        <path d="M130.813407,366.166262 C147.462809,364.911079 157.223981,364.488877 160.096923,364.899658 C162.969864,365.310438 170.427083,366.996838 182.468578,369.958856 C185.291147,370.142467 187.291381,370.142467 188.46928,369.958856 C202.046822,367.842388 210.610788,362.875858 215.330924,363.046432 C221.100781,363.254939 232.640493,364.707748 249.950062,367.404859 C240.536853,368.93101 233.527918,370.678945 228.923259,372.648664 C217.531288,377.521767 206.75597,386.190459 189.317628,387.646414 C171.077761,389.16929 152.614521,374.854214 148.977034,372.648664 C146.552042,371.178297 140.4975,369.017497 130.813407,366.166262 Z" id="Path-8" fill="url(#linearGradient-14)" opacity="0.768568841"></path>
        <path d="M125.75387,366.416291 C126.647103,366.416291 124.636752,363.845777 129.740244,361.077046 C134.17527,358.670969 140.674665,356.576063 149.238429,354.792326 C151.192569,354.33517 156.459645,354.894713 165.039658,356.470956 C177.909677,358.835319 182.231665,358.726448 187.045258,358.726448 C191.858851,358.726448 202.615605,354.769276 210.112062,353.80704 C217.608519,352.844804 218.519944,352.455445 236.078368,356.470956 C247.783984,359.147963 255.004125,362.810328 257.738789,367.45805 C243.972963,364.905085 232.978823,363.628602 224.756369,363.628602 C216.533916,363.628602 209.74249,364.557832 204.382091,366.416291 C197.776545,369.222507 192.459767,370.625615 188.431759,370.625615 C182.389747,370.625615 174.970508,367.575461 162.169036,365.386347 C149.367564,363.197233 123.696283,366.416291 125.75387,366.416291 Z" id="Path-9" fill="#959595" opacity="0.768568841"></path>
        <path d="M182.274016,469.630274 C147.085123,462.571628 124.218081,451.524882 113.672888,436.490038 C97.8551,413.937771 86.6680296,397.760851 84.0192075,393.19983 C81.3703855,388.63881 71.4743529,374.221126 69.382848,368.125166 C67.2913431,362.029205 60.1660693,321.786704 58.6698359,313.656132 C58.4577523,312.503665 55.0052541,302.218626 52.8215892,297.797735 C48.9329164,289.925006 41.7064663,278.984706 37.158735,269.106187 C35.745043,266.035385 34.2051727,262.977846 32.9997972,260.120374 C31.9428944,257.614873 30.6144971,254.07227 29.0146052,249.492564 C36.7832818,265.747183 42.760171,276.388174 46.945273,281.415535 C51.4229894,286.7944 57.0221632,294.03302 62.6569439,299.533265 C70.1837374,306.88035 84.1701581,313.32902 87.4412079,319.210762 C92.9831294,329.175805 94.3431428,335.813788 94.3431428,351.969477 C94.3431428,368.125166 102.82814,397.034193 111.440465,403.126172 C120.052789,409.218151 134.144355,413.173956 143.837917,412.509014 C153.531478,411.844073 173.087675,409.779569 178.756864,406.45287 C184.426053,403.126172 182.605901,395.204609 184.426053,396.018864 C185.639488,396.5617 188.751697,396.833118 193.762681,396.833118 C196.254515,401.784268 198.14969,405.297026 199.448207,407.371392 C200.265822,408.677523 195.640322,404.944226 207.426481,412.509014 C218.629902,419.699779 248.222818,430.230221 242.573017,428.432786 C230.979545,424.744422 206.100399,410.457679 187.736068,413.989434 C169.371737,417.521189 146.386547,423.72144 146.90003,432.801674 C147.242352,438.855163 159.033681,451.131363 182.274016,469.630274 Z" id="Path-10" fill="url(#linearGradient-15)" opacity="0.768568841"></path>
        <path d="M181.371976,740.168824 C185.874815,742.485574 195.682007,744.080759 204.017371,740.168824 C212.352736,736.256889 204.017371,734.529857 197.254805,733.675941 C190.492239,732.822026 187.905977,733.620385 183.890813,734.552224 C179.875648,735.484063 176.869136,737.852075 181.371976,740.168824 Z" id="Path-14" fill="#B9B9B9"></path>
        <path d="M334.835953,480.856473 C338.611794,473.007605 363.009907,475.988121 368.519128,489.83491 C369.620811,492.603862 375.251885,506.180789 377.690565,522.710661 C380.129244,539.240533 379.473995,548.991029 380.801224,559.898099 C382.574676,574.4722 380.388077,579.303568 380.801224,583.706089 C381.740946,593.719831 377.571234,645.907047 375.278588,667.634643 C375.034025,669.952395 377.938634,677.404245 377.690565,679.53215 C377.368112,682.298107 371.679804,683.33398 371.572506,683.402373 C370.608837,684.016632 364.224491,684.124469 364.928554,679.53215 C364.967824,679.276003 361.936268,679.766699 361.741754,677.187524 C361.434761,673.116922 363.559373,669.777661 363.337523,662.474819 C362.836824,645.992897 360.172908,622.732549 360.17861,620.594142 C360.193562,614.987808 360.17861,586.564507 360.17861,577.027239 C360.17861,567.489971 361.369763,580.251287 353.964613,550.209462 C349.762889,533.163563 334.509022,516.541873 331.629654,503.957921 C329.434402,494.363819 333.202545,484.251849 334.835953,480.856473 Z" id="Path-15" fill="url(#linearGradient-16)"></path>
        <path d="M43.0602987,466.857089 C48.8373728,460.20775 71.5953385,469.109505 73.1593335,483.844455 C73.4720867,486.791013 75.2270127,501.295377 73.0970025,517.864007 C70.9669923,534.432638 67.6881472,543.689142 66.010378,554.552197 C63.7685316,569.067483 60.345385,573.194453 59.5497734,577.548949 C57.7211069,587.557503 38.6134424,627.551053 31.2004647,647.60773 C30.8154433,648.649451 30.0987884,659.478464 30.1213438,660.506384 C30.1997064,664.077613 30.5769772,666.32958 28.0438856,667.853301 C15.5838601,675.348334 13.5446634,667.54616 14.7773692,664.818674 C15.2667006,663.735979 14.388378,662.409083 15.5365277,657.34305 C16.342621,653.786288 19.670757,652.296744 20.9853002,647.54289 C25.1689408,632.413362 28.748069,611.160997 29.6198106,608.089275 C31.1556032,602.677663 38.8541902,575.219172 41.4422506,566.006878 C44.0303111,556.794585 41.7179283,569.415112 42.7173387,538.568938 C43.2844097,521.066647 33.0608148,501.245834 33.6943765,488.379883 C34.1774088,478.570783 40.5611687,469.733555 43.0602987,466.857089 Z" id="Path-15" fill="url(#linearGradient-17)"></path>
        <path d="M7.24316437,714.502294 C7.88979108,716.243046 9.52446465,716.121199 11.6277846,718.73373 C12.648295,720.001305 13.8043645,721.650164 15.1841074,724.022133 C16.1039359,725.603446 17.2826322,726.336043 18.7201963,726.219925 C19.3131257,726.255283 19.64488,726.216431 19.7154592,726.103371 C20.3878514,725.026268 20.0470924,723.86667 19.9945831,723.458784 C19.5977946,720.376582 17.812487,719.168956 17.7944003,719.02846 C17.7853254,718.957968 17.4765757,717.27617 16.4246452,715.728857 C15.6834369,714.638594 14.2456668,713.902069 13.7125665,712.591393 C13.3361109,711.665842 13.3573237,710.485304 13.7762049,709.04978 C13.2923904,705.355406 11.9446491,702.911226 9.7329808,701.71724 C6.41547841,699.926262 2.94610743,699.075642 3.40401412,702.458418 C3.66491828,704.385842 5.0190651,706.462397 5.87593509,708.872589 C6.52293729,710.692468 6.62340682,712.833875 7.24316437,714.502294 Z" id="Path-17" fill="url(#linearGradient-18)"></path>
        <path d="M14.4542891,718.67093 C15.1565794,721.176307 16.9969409,721.120962 19.3251336,724.961984 C20.45475,726.825611 21.7313599,729.237566 23.2491599,732.687048 C24.2610265,734.986702 25.5762492,736.105863 27.1948281,736.044529 C27.8612219,736.136841 28.2349231,736.105658 28.3159318,735.950979 C29.0876837,734.477384 28.7210714,732.814862 28.6678709,732.234886 C28.2658594,727.85228 26.2751704,726.018702 26.2568457,725.81893 C26.2476514,725.718697 25.9245437,723.320746 24.7636061,721.059685 C23.9455894,719.466503 22.339028,718.323284 21.7582488,716.433591 C21.3481242,715.09916 21.3889432,713.432918 21.8807058,711.434865 C21.3896057,706.18122 19.9088371,702.632012 17.4383999,700.787242 C13.7327442,698.020088 9.8427638,696.570537 10.3092004,701.382135 C10.5749646,704.123666 12.0682192,707.153985 12.9973649,710.620107 C13.6989408,713.237293 13.7811809,716.269659 14.4542891,718.67093 Z" id="Path-17" fill="url(#linearGradient-19)"></path>
        <path d="M1.61405839,701.426993 C2.83784044,709.47957 5.54106646,706.542158 6.31614661,706.644638 C6.803977,706.709139 7.82353979,705.315938 9.14699922,705.209025 C9.92629343,705.146072 11.1800132,706.449381 11.5011042,706.286545 C12.3674977,705.84717 13.0594982,709.711665 15.8588722,709.158421 C16.8654475,708.959489 16.9280739,709.161685 17.6273391,708.513293 C18.8727914,707.358449 21.2891445,704.432202 22.4973831,704.713325 C22.6635463,704.751987 24.1887461,705.79768 25.2010103,706.048924 C26.898217,706.470169 28.636487,705.765514 29.6053063,703.379555 C30.1707819,701.986931 31.8274663,698.210468 31.8540782,693.693561 C31.8633801,692.114725 31.5385158,688.510044 31.381955,685.901998 C31.2872594,684.324527 32.0394904,682.34993 33.6386477,679.978208 C35.9568745,681.182585 37.443988,682.617696 38.0999884,684.28354 C39.0839888,686.782307 43.3303754,691.024054 47.5161157,690.125563 C51.7018559,689.227072 49.1812117,686.202096 48.6034455,685.199438 C48.0256793,684.196779 46.1329625,680.198077 45.2994547,679.272775 C44.465947,678.347472 37.1660439,668.053968 35.1439205,667.932452 C34.0791718,667.868467 29.4014866,660.326762 23.9476369,658.897204 C19.0437775,657.611809 14.4443845,660.992521 12.5571819,662.00693 C4.01900179,674.048501 -0.0079461894,681.387103 0.476337923,684.022735 C1.20276409,687.976184 0.390276328,693.374417 1.61405839,701.426993 Z" id="Path-16" fill="url(#linearGradient-20)"></path>
        <path d="M387.354408,723.188206 C387.560386,725.029152 386.002493,725.618296 385.270788,728.865383 C384.915772,730.440838 384.611453,732.416927 384.433984,735.138541 C384.315671,736.95295 383.569434,738.11518 382.195272,738.625228 C381.666757,738.910426 381.344094,739.017298 381.227284,738.945846 C380.114454,738.265132 379.894563,737.077252 379.755335,736.688204 C378.70326,733.748352 379.788503,731.899904 379.740546,731.765897 C379.716484,731.698661 379.227172,730.055111 379.482483,728.2148 C379.66238,726.918085 380.644841,725.641598 380.532229,724.235723 C380.452706,723.242946 379.890621,722.190952 378.845974,721.079741 C377.592491,717.552477 377.707369,714.779638 379.190609,712.761224 C381.415468,709.733602 384.212065,707.48626 385.346136,710.722389 C385.992302,712.566256 385.702572,715.011414 386.02307,717.543907 C386.265071,719.456132 387.15699,721.423757 387.354408,723.188206 Z" id="Path-17" fill="url(#linearGradient-21)"></path>
        <path d="M373.232527,732.356325 C372.514628,734.861702 370.633363,734.806357 368.253424,738.647379 C367.0987,740.511006 365.793716,742.922962 364.242182,746.372443 C363.207826,748.672098 361.863371,749.791258 360.208817,749.729924 C359.527612,749.822237 359.145605,749.791053 359.062796,749.636374 C358.273891,748.162779 358.648652,746.500258 358.703035,745.920282 C359.113981,741.537675 361.148915,739.704097 361.167647,739.504326 C361.177046,739.404092 361.507335,737.006141 362.694076,734.74508 C363.530274,733.151898 365.172542,732.008679 365.76623,730.118986 C366.18547,728.784555 366.143744,727.118313 365.641051,725.120261 C366.143066,719.866615 367.656747,716.317407 370.182092,714.472638 C373.970109,711.705483 377.946548,710.255933 377.469745,715.06753 C377.198074,717.809062 375.67163,720.83938 374.721833,724.305502 C374.004664,726.922688 373.920596,729.955054 373.232527,732.356325 Z" id="Path-17" fill="url(#linearGradient-19)"></path>
        <path d="M385.478632,711.949715 C384.227651,720.002291 381.464343,717.064879 380.672036,717.167359 C380.173363,717.23186 379.131139,715.838659 377.778265,715.731746 C376.98165,715.668793 375.700065,716.972102 375.371837,716.809267 C374.486187,716.369892 373.778806,720.234387 370.917214,719.681142 C369.888266,719.482211 368.806525,719.087901 368.091718,718.439509 C367.387761,717.800959 368.493566,715.600058 367.468839,714.720013 C366.640307,714.008463 364.511222,717.041678 363.959052,717.167359 C363.789196,717.206021 362.4022,716.320401 361.367437,716.571645 C359.632508,716.992891 357.855604,716.288235 356.865251,713.902277 C356.287208,712.509652 354.593702,708.733189 354.566498,704.216283 C354.55699,702.637446 354.889075,699.032765 355.049115,696.42472 C355.145915,694.847248 354.376965,692.872651 352.742265,690.500929 C350.372513,691.705306 348.852347,693.140417 348.181767,694.806262 C347.175896,697.305028 342.835129,701.546775 338.556357,700.648284 C334.277584,699.749793 336.854252,696.724818 337.44486,695.722159 C338.035468,694.719501 339.970252,690.720799 340.822285,689.795496 C341.674318,688.870193 349.136469,678.576689 351.203536,678.455173 C352.29195,678.391189 357.073601,670.849483 362.648668,669.419925 C367.661521,668.13453 372.36314,671.515242 374.292287,672.529651 C383.020237,684.571222 387.136688,691.909824 386.64164,694.545456 C385.899068,698.498905 386.729614,703.897138 385.478632,711.949715 Z" id="Path-16" fill="url(#linearGradient-20)"></path>
        <path d="M21.7662007,708.236386 C22.4076375,710.345185 24.400361,716.11391 26.1459207,719.813293 C27.3114308,722.28337 27.6738712,727.832789 27.7909614,727.687015 C27.8269773,727.642176 28.9828799,730.918277 30.1068207,732.942426 C31.2969101,735.085704 29.7214219,733.821686 31.5350646,734.403147 C34.0857886,735.22092 35.7793285,731.181073 34.4073223,727.375916 C33.035316,723.570759 33.0630139,727.584384 32.4034262,720.825641 C32.2738799,719.498189 32.283934,717.567534 31.686557,714.545077 C31.3362541,712.772703 29.6807745,710.224353 29.743522,708.75003 C29.893052,705.236652 28.8893217,701.862946 28.7877407,701.632795 C28.541581,701.075073 23.5718126,697.950494 21.7662007,699.430016 C20.7406052,700.270391 19.1395294,701.14786 18.8711846,702.546337 C18.4752572,704.609709 21.7161121,708.071714 21.7662007,708.236386 Z" id="Path-16" fill="url(#linearGradient-22)"></path>
        <path d="M363.251051,718.313423 C361.259324,719.753379 358.586265,726.004819 355.841118,729.480595 C354.008183,731.80137 352.350259,737.6196 352.255751,737.432855 C352.226681,737.375414 350.220821,740.557929 348.534681,742.414508 C346.749304,744.380355 348.75486,743.454961 346.644925,743.58901 C343.677492,743.777538 342.75005,739.017753 345.111935,735.32918 C347.473821,731.640607 346.530359,735.91144 348.787468,728.883737 C349.230776,727.50346 349.659113,725.442821 350.998233,722.381083 C351.783495,720.585675 354.168511,718.312694 354.435557,716.724361 C355.071939,712.93929 356.934078,709.611978 357.097212,709.393859 C357.492533,708.865295 362.980651,706.493196 364.612874,708.553864 C366.907881,711.451292 368.292115,714.668892 363.251051,718.313423 Z" id="Path-16" fill="url(#linearGradient-23)"></path>
        <ellipse id="Oval" fill="#503636" cx="111.5" cy="182.5" rx="9.5" ry="8.5"></ellipse>
        <ellipse id="Oval" fill="#503636" cx="109.5" cy="162.5" rx="9.5" ry="8.5"></ellipse>
        <ellipse id="Oval" fill="#503636" cx="263.5" cy="185.5" rx="9.5" ry="8.5"></ellipse>
        <ellipse id="Oval" fill="#503636" cx="266.5" cy="166.5" rx="9.5" ry="8.5"></ellipse>
    </g>
</svg>