<svg width="410" height="1051" viewBox="0 0 410 1051" xmlns="http://www.w3.org/2000/svg" xmlns:xlink="http://www.w3.org/1999/xlink">
  <defs>
    <linearGradient x1="57.963907%" y1="3.952156%" x2="282.865374%" y2="38.622516%" id="a">
      <stop stop-color="#D1D1D1" offset="0%"/>
      <stop stop-color="#303030" stop-opacity=".073851" offset="100%"/>
    </linearGradient>
    <linearGradient x1="50%" y1="92.073254%" x2="50%" y2="4.27146%" id="b">
      <stop stop-color="#A3A3A3" offset="0%"/>
      <stop stop-color="#BABABA" offset="100%"/>
    </linearGradient>
    <linearGradient x1="50%" y1="0%" x2="50%" y2="98.63082%" id="c">
      <stop stop-color="#E3E3E3" offset="0%"/>
      <stop stop-color="#D1D1D1" offset="61.435148%"/>
      <stop stop-color="#D1D1D1" offset="61.435148%"/>
      <stop stop-color="#C5C5C5" offset="100%"/>
    </linearGradient>
    <path d="M60.342742 324.272c-6.062863-38.732778-22.799286-42.85329-33.772535-82.8547C15.59696 201.41589-3.42154 142.725843 18.15944 97.448657 39.74042 52.17147 86.97941-6.468703 210.00964 1.78349c123.03023 8.252193 164.307294 44.17843 187.975058 102.653265 23.667764 58.474835-6.07477 132.756734-33.471453 168.31169-27.396683 35.554956-24.504255 105.747767-62.050992 138.955362-37.546737 33.207595-34.692917 62.796996-109.336834 59.042865-74.64392-3.75413-88.99308-51.27859-106.14601-73.668377-17.15294-22.389787-20.57381-34.07352-26.63667-72.806295z" id="e"/>
    <filter x="-1.4%" y="-.7%" width="102.8%" height="102.3%" filterUnits="objectBoundingBox" id="d">
      <feOffset dy="2" in="SourceAlpha" result="shadowOffsetOuter1"/>
      <feGaussianBlur stdDeviation="1.5" in="shadowOffsetOuter1" result="shadowBlurOuter1"/>
      <feColorMatrix values="0 0 0 0 0 0 0 0 0 0 0 0 0 0 0 0 0 0 0.5 0" in="shadowBlurOuter1"/>
    </filter>
    <radialGradient cy="16.548452%" fx="50%" fy="16.548452%" r="100%" gradientTransform="translate(0.500000,0.165485),scale(1.000000,0.692504),rotate(90.000000),translate(-0.500000,-0.165485)" id="h">
      <stop stop-color="#D17D7D" offset="0%"/>
      <stop stop-color="#1B0303" offset="100%"/>
    </radialGradient>
    <path d="M56.927986 158.54247c-6.23271-103.05181 84.28741-78.183492 105.3701-31.802406 21.08269 46.381086 3.372538 92.087715-21.08269 113.691358-18.582875 16.41603-34.499228 20.68458-56.751497-14.59055-7.91075-12.540408-25.5716-34.820355-27.53592-67.2984z" id="g"/>
    <filter x="-6.5%" y="-3.3%" width="113%" height="109%" filterUnits="objectBoundingBox" id="f">
      <feMorphology radius=".5" operator="dilate" in="SourceAlpha" result="shadowSpreadOuter1"/>
      <feOffset dy="2" in="shadowSpreadOuter1" result="shadowOffsetOuter1"/>
      <feGaussianBlur stdDeviation="2" in="shadowOffsetOuter1" result="shadowBlurOuter1"/>
      <feComposite in="shadowBlurOuter1" in2="SourceAlpha" operator="out" result="shadowBlurOuter1"/>
      <feColorMatrix values="0 0 0 0 0 0 0 0 0 0 0 0 0 0 0 0 0 0 0.5 0" in="shadowBlurOuter1"/>
    </filter>
    <radialGradient cx="45.344444%" cy="16.874%" fx="45.344444%" fy="16.874%" r="100%" gradientTransform="translate(0.453444,0.168740),scale(1.000000,0.744026),rotate(84.030501),translate(-0.453444,-0.168740)" id="k">
      <stop stop-color="#D17D7D" offset="0%"/>
      <stop stop-color="#1B0303" offset="100%"/>
    </radialGradient>
    <path d="M331.935908 181.432726c21.003864-99.187598-78.832354-103.703514-106.65673-61.52415-27.824375 42.179366-12.651693 92.767415 0 124.052878 7.566347 18.710273 29.86024 31.241782 57.271723 0 9.74486-11.10654 42.76539-31.268535 49.38501-62.528728z" id="j"/>
    <filter x="-6%" y="-3.3%" width="112%" height="108.9%" filterUnits="objectBoundingBox" id="i">
      <feMorphology radius=".5" operator="dilate" in="SourceAlpha" result="shadowSpreadOuter1"/>
      <feOffset dy="2" in="shadowSpreadOuter1" result="shadowOffsetOuter1"/>
      <feGaussianBlur stdDeviation="2" in="shadowOffsetOuter1" result="shadowBlurOuter1"/>
      <feComposite in="shadowBlurOuter1" in2="SourceAlpha" operator="out" result="shadowBlurOuter1"/>
      <feColorMatrix values="0 0 0 0 0 0 0 0 0 0 0 0 0 0 0 0 0 0 0.5 0" in="shadowBlurOuter1"/>
    </filter>
    <linearGradient x1="96.580146%" y1="100.652229%" x2="103.366026%" y2="3.609621%" id="l">
      <stop stop-color="#D9D9D9" offset="0%"/>
      <stop stop-color="#676668" offset="100%"/>
    </linearGradient>
    <linearGradient x1="102.405899%" y1="94.597983%" x2="97.314679%" y2="-2.548275%" id="m">
      <stop stop-color="#D9D9D9" offset="0%"/>
      <stop stop-color="#676668" offset="100%"/>
    </linearGradient>
    <linearGradient x1="76.115125%" y1="0%" x2="76.115125%" y2="100%" id="n">
      <stop stop-color="#D9D9D9" offset="0%"/>
      <stop stop-color="#676668" offset="100%"/>
    </linearGradient>
    <linearGradient x1="100%" y1="97.279576%" y2="0%" id="o">
      <stop stop-color="#D9D9D9" offset="0%"/>
      <stop stop-color="#A8A8A8" offset="100%"/>
    </linearGradient>
    <linearGradient x1="54.149631%" y1="2.569499%" x2="45.761545%" y2="98.445765%" id="p">
      <stop stop-color="#DFDFDF" offset="0%"/>
      <stop stop-color="#C5C5C5" offset="100%"/>
    </linearGradient>
    <linearGradient x1="66.284153%" y1="5.259658%" x2="33.36728%" y2="95.698022%" id="q">
      <stop stop-color="#DFDFDF" offset="0%"/>
      <stop stop-color="#C5C5C5" offset="100%"/>
    </linearGradient>
    <linearGradient x1="226.19845%" y1="34.84013%" x2="27.776904%" y2="10.046723%" id="r">
      <stop stop-color="#7D7D7D" offset="0%"/>
      <stop stop-color="#AAA" offset="100%"/>
    </linearGradient>
    <linearGradient x1="226.620186%" y1="40.998602%" x2="29.184791%" y2="9.295486%" id="s">
      <stop stop-color="#7D7D7D" offset="0%"/>
      <stop stop-color="#AAA" offset="100%"/>
    </linearGradient>
    <linearGradient x1="69.752196%" y1="87.148478%" x2="28.531751%" y2="9.624096%" id="t">
      <stop stop-color="#A3A3A3" offset="0%"/>
      <stop stop-color="#B9B9B9" offset="60.402129%"/>
      <stop stop-color="#C7C7C7" offset="100%"/>
    </linearGradient>
    <linearGradient x1="215.011767%" y1="113.614716%" x2="47.540377%" y2="4.348268%" id="u">
      <stop stop-color="#7D7D7D" offset="0%"/>
      <stop stop-color="#AAA" offset="100%"/>
    </linearGradient>
    <linearGradient x1="209.062613%" y1="-27.296835%" x2="14.934978%" y2="20.664448%" id="v">
      <stop stop-color="#7D7D7D" offset="0%"/>
      <stop stop-color="#AAA" offset="100%"/>
    </linearGradient>
    <linearGradient x1="187.597844%" y1="-61.097024%" x2="9.234629%" y2="29.30423%" id="w">
      <stop stop-color="#7D7D7D" offset="0%"/>
      <stop stop-color="#AAA" offset="100%"/>
    </linearGradient>
  </defs>
  <g fill="none" fill-rule="evenodd">
    <path d="M124.415007 725.335733c27.649257 5.163573 50.44623 17.896746 59.70859 32.17897 9.26236 14.282223-1.405993 47.0181-7.538778 68.146766-6.13279 21.12866-11.50793 37.3023-8.15885 46.02277 3.34908 8.72047 6.94433 16.61489 8.15884 37.52753.44603 7.68016-2.41004 25.28662-1.12275 35.13752.70782 5.41657 4.51667 5.37343 4.14957 10.16212-.11815 1.54114-3.8467 5.82039-11.18567 12.83775-4.61395 1.27441-8.64799 1.27441-12.10213 0-5.18121-1.91162.21393-19.96297-14.19775-47.01634-1.65539-3.10746-5.96285-21.84399-7.99319-33.55272-.64139-3.69881-5.63683-14.66524-6.56821-17.90546-1.38697-4.82522-3.16402-15.04087-4.32454-19.98549-3.38758-14.43345-5.31315-23.22076-6.82505-31.35339-4.00195-21.52678-19.64938-97.36363 7.99987-92.20006z" fill="url(#a)"/>
    <path d="M151.63522 958.56714c4.317918-10.342545 14.18374-25.935948 16.7687-8.20357 2.584957 17.732375.14784 61.05553 3.345508 71.90957 3.629138 12.31861 11.321976 14.1128 10.85347 19.73185-.369903 4.43648-4.69655 7.8404-8.926945 8.22861-9.588427.87991-8.93914-.12698-11.300047-6.19158-2.360908-6.06459 9.373522-11.6946-10.740685-16.43575-6.36474-1.50025-13.78481.96114-18.42087 8.78123-3.33027 5.61749.2713 3.50713-3.33027 10.63764-3.60156 7.13051-17.27929 2.98312-18.63121 0-1.35192-2.98312-6.3557-6.59755 0-10.63764 6.35571-4.04008 8.86903-.19851 11.22384-8.78123 1.70516-3.55542-.79241-5.33313-7.49272-5.33313-10.05046 0-20.8839 6.03419-22.56504 10.07428-1.68113 4.04008-1.21017 8.71149-7.56283 11.6946-2.92565 1.37385-6.86946.24796-11.42503-2.03703-3.31185-1.66117-6.55627-15.44955 5.89389-14.39872 6.08136.51328 19.72267-10.89004 27.00946-15.11232 35.60567-20.631434 31.96295-8.1678 35.28255-24.52129 3.3196-16.35349 5.70032-19.062975 10.01824-29.40552z" fill="url(#b)"/>
    <path d="M208.39024 755.73136c11.561215-10.50625 64.634902-41.63103 71.131744-26.637098 6.496842 14.99393-2.595845 71.387737-12.74437 92.75962-10.148526 21.371883-18.59506 37.703916-16.92578 46.7648 1.669282 9.060885 3.741707 17.286474.95382 38.73719-.556098 4.278763-2.929668 13.623426-8.504562 35.912485-.845236 3.379347-.845236 9.569678 0 18.570994-9.57277 8.76412-18.8891 7.16026-27.948994-4.8116-2.470042-3.26394 4.996884-10.39872 6.465107-20.02437.901132-5.9078-2.971734-8.92001-6.465107-19.67324-1.055046-3.24762-1.76433-22.59765-1.548637-34.66276.06814-3.81139-2.81188-15.2379-3.12029-18.59182-.45927-4.99455-.27667-15.52136-.48753-20.62886-.6155-14.90888-.85392-23.98006-.80538-32.36437.12847-22.19299-11.56121-44.84469 0-55.35094z" fill="url(#a)"/>
    <path d="M239.589294 958.56714c-4.578483-10.342545-15.03966-25.935948-17.78061-8.20357-2.740948 17.732375-.156764 61.05553-3.547394 71.90957-3.84814 12.31861-12.005204 14.1128-11.508428 19.73185.392226 4.43648 4.979965 7.8404 9.465645 8.22861 10.167044.87991 9.478575-.12698 11.981953-6.19158 2.503377-6.06459-9.93917-11.6946 11.388834-16.43575 6.748828-1.50025 14.616668.96114 19.53249 8.78123 3.531232 5.61749-.28767 3.50713 3.531232 10.63764 3.818904 7.13051 18.322012 2.98312 19.755515 0 1.43351-2.98312 6.73925-6.59755 0-10.63764-6.73924-4.04008-9.40423-.19851-11.90114-8.78123-1.80806-3.55542.84023-5.33313 7.94487-5.33313 10.65696 0 22.14415 6.03419 23.92674 10.07428 1.78259 4.04008 1.28321 8.71149 8.01922 11.6946 3.1022 1.37385 7.28401.24796 12.11448-2.03703 3.51171-1.66117 6.95192-15.44955-6.24955-14.39872-6.44833.51328-20.91284-10.89004-28.63935-15.11232-37.7543-20.631434-33.89176-8.1678-37.41168-24.52129-3.51992-16.35349-6.04431-19.062975-10.62279-29.40552z" fill="url(#b)"/>
    <path d="M99.053464 691.18911c-17.803654-74.107772-2.723976-166.19823-27.25695-185.837962-24.532975-19.639733-37.56801-24.67544-27.01411-39.33217 7.035933-9.771155 51.999192-21.05772 134.889778-33.859694 28.906226 7.116748 55.726685 10.675122 80.461378 10.675122 37.102038 0 107.118445 32.815938 107.29999 51.377618.181548 18.56168-31.21466 1.37915-43.105952 30.817188-11.891292 29.43804-42.308808 178.599898-42.308808 208.8333 0 14.489064-1.28172 18.506285-5.912673 18.20594-2.87901-.18672-26.730586 4.291474-37.40615 10.98996-6.496325 4.076184-13.411314 10.4021-17.57486 12.61446-4.163544 2.21236-22.868622 24.988943-48.03701 10.241176-25.168386-14.747768-12.047354-6.18455-43.526726-32.287053-11.58859-9.609195-17.78068-8.811112-20.08023-9.875846-3.94696-1.82752.82187-5.7358-10.42767-52.56204z" fill="url(#c)"/>
    <path d="M99.570704 683.759133c-17.803653-71.28302-2.723976-159.863284-27.25695-178.754414-24.532974-18.89113 9.49771 6.13755 14.92463 7.8768 3.067747.98317-.428957 20.97784 15.274966 45.79801 3.9202 6.1959 20.12891 15.9643 37.374826 16.73923 15.73251.70692 33.176205-11.2487 51.672947-10.94532 38.7728.63595 12.817658 13.35901 55.88279 13.35901 24.582964 0 29.08991-3.58409 47.317074-25.33021 13.703696-16.34935 48.30572-55.64936 56.581642-51.93887 19.28365 8.64579-14.6065-4.94664-26.4978 23.36932-11.89129 28.31595-42.30881 171.79224-42.30881 200.87324 0 29.081-17.54214 13.07667-41.16133 26.20229-23.61919 13.12562-35.3553 34.54597-60.52369 20.36034-25.16839-14.18563-4.70254-1.72725-36.18191-26.83481-21.28871-16.97961-24.55426-15.58341-31.0527-28.86393-3.11073-6.35724-8.28222-8.83462-14.04571-31.91073z" fill="#CFCFCF"/>
    <use fill="#000" filter="url(#d)" xlink:href="#e"/>
    <use fill="#D8D8D8" xlink:href="#e"/>
    <path d="M79.045472 75.05411c20.181014.031394 75.556472 7.662005 86.367808 18.71446 10.811336 11.052456 15.603697 32.814136 15.476427 73.03913-.084847 26.816663-18.351696 54.762778-54.80055 83.838347l-24.46649-65.88988c-20.56648 9.5421-31.54239 14.31315-32.927727 14.31315-2.078006 0-32.870675-45.70204-32.778515-59.021075.06144-8.879357 3.112255-21.417054 9.152443-37.61309 9.19706-18.274956 20.522594-27.40197 33.976604-27.38104zm194.728954 13.216757c-57.280114 13.254156-49.119497 4.085285-59.930833 15.13774-10.811336 11.052456-8.721707 26.383183-8.594438 66.608177.084847 26.816663 18.351697 54.76278 54.80055 83.838348l24.46649-65.88988c6.402546 26.85125 10.296487 40.276874 11.681824 40.276874 2.078 0 72.04119-36.903607 71.2293-68.248546-.54126-20.896626-3.67546-41.901935-9.4026-63.015925-17.98013-14.64063-46.06357-17.542893-84.25031-8.706788z" fill-opacity=".5" fill="#B5B4B6"/>
    <path d="M59.707306 232.82179c12.308828 17.74055 9.388398 24.258752 41.071955 34.918374 10.74867 3.616284 31.14208-4.877273 42.01215-13.39725 25.81557-20.234277 40.46294-52.164562 37.21101-48.889436-4.34631 4.377317-34.36365 42.559817-56.84783 31.283628-18.82013-9.438607-48.48102-28.42368-53.69578-31.283628-5.95095-3.263697-18.69327 14.480628-9.75149 27.368312zm263.38959-2.33842c-4.46232 19.268864-9.913864 24.15174-41.59742 34.96561-10.74867 3.66861-40.20894 8.64326-51.07901 0-25.81557-20.527072-31.270997-61.876884-28.01907-58.554366 4.34631 4.440658 24.18208 59.05428 46.666265 47.614924 18.82014-9.575185 52.01708-28.414308 57.23184-31.31564 5.95096-3.310922 19.94843-6.31705 16.7974 7.289473z" fill-opacity=".5" fill="#B5B4B6" opacity=".768569"/>
    <use fill="#000" filter="url(#f)" xlink:href="#g"/>
    <use stroke="#979797" fill="url(#h)" xlink:href="#g"/>
    <use fill="#000" filter="url(#i)" xlink:href="#j"/>
    <use stroke="#979797" fill="url(#k)" xlink:href="#j"/>
    <path d="M163.586166 282.141584c8.854568-17.334766 20.592263-6.19089 21.740742 8.488586.33705 4.308065-.785953 9.655244-1.04606 14.267845-.220506 3.91034-.64692 9.726456-1.27924 17.44835l-12.04073-12.274765c-10.81952-7.0635-13.277758-16.373505-7.374712-27.930016z" fill="url(#l)" opacity=".768569"/>
    <path d="M212.43219 284.769296c-6.573604-18.234775-19.647725-8.538305-22.663326 5.898258-.885004 4.236776-.453612 9.67463-.784823 14.283084-.28078 3.906823-.6007 9.729152-.95977 17.466987l13.5194-10.783706c11.64142-5.75324 15.27093-14.70811 10.88853-26.86463z" fill="url(#m)" opacity=".768569"/>
    <path d="M153.966634 285.69678c-.38092 1.42333-.647914 2.472483-.800986 3.147458-1.639728 7.230408-1.372732 12.589628.800986 16.07766 3.71715 5.964685 15.414986 21.590065 23.720427 18.768874 3.99126-1.355748.50699 32.45308 9.92806 29.233516 3.32371-1.135847-1.27926-17.587068 3.5915-24.020812 4.46234-5.89426 2.92484 21.067452 8.8087 17.40422 4.02729-2.507353 12.27824 0 29.2448 0 6.209 0 9.88285 3.159145 9.77735 0-.3615-10.824862-16.77706-39.838395-16.56026-40.203325 3.17296-5.341 42.89195 71.76258 36.23662 60.02785-6.65532-11.73473-45.17727-17.03125-49.40025-17.00886-4.57287.02424-13.57015 6.8366-21.69844 8.53412-6.55818 1.36961-11.82969-1.87942-19.33568-4.73317-3.007-1.14325-31.69181-3.80094-40.39003 13.20793-1.55591 3.04249.18321-20.36575 7.25218-42.44144 5.99349-18.71705 17.3203-36.28085 18.02407-37.99399m12.15583-13.30313c5.1294-2.29086 9.27619-3.26513 12.44035-2.9228 3.16417.34233 5.94893 1.74119 8.35429 4.19659l4.08607-53.7965c-6.41761 19.966-9.62641 30.6529-9.62641 32.0607 0 1.40781-3.23863 5.89123-9.71588 13.45028l-5.538407 7.01173z" fill-opacity=".5" fill="#C1C1C1"/>
    <path d="M130.813407 366.166262c16.649402-1.255183 26.410574-1.677385 29.283516-1.266604 2.87294.41078 10.33016 2.09718 22.371655 5.059198 2.82257.18361 4.822803.18361 6.000702 0 13.577542-2.116468 22.141508-7.082998 26.861644-6.912424 5.769857.208507 17.30957 1.661316 34.619138 4.358427-9.41321 1.52615-16.422144 3.27408-21.026803 5.2438-11.39198 4.8731-22.16729 13.54179-39.60564 14.99775-18.23987 1.52287-36.70311-12.7922-40.3406-14.99775-2.42499-1.47037-8.47954-3.63117-18.16363-6.4824z" fill="url(#n)" opacity=".768569"/>
    <path d="M125.75387 366.41629c.893233 0-1.117118-2.570513 3.986374-5.339244 4.435026-2.406077 10.93442-4.500983 19.498185-6.28472 1.95414-.457156 7.22121.102387 15.80122 1.67863 12.87002 2.364363 17.192 2.255492 22.0056 2.255492 4.81359 0 15.57034-3.957172 23.0668-4.919408 7.49645-.962236 8.40788-1.351595 25.9663 2.663916 11.70561 2.677007 18.92575 6.339372 21.66042 10.987094-13.76583-2.552965-24.75997-3.829448-32.98242-3.829448-8.22245 0-15.01388.92923-20.37428 2.78769-6.60555 2.806215-11.92233 4.209323-15.95033 4.209323-6.04202 0-13.46126-3.050154-26.26273-5.239268s-38.47276 1.029944-36.41517 1.029944z" fill="#959595" opacity=".768569"/>
    <path d="M182.274016 469.630274c-35.188893-7.058646-58.055935-18.105392-68.601128-33.140236C97.8551 413.93777 86.66803 397.76085 84.019208 393.19983c-2.648823-4.56102-12.544855-18.978704-14.63636-25.074664-2.091505-6.09596-9.21678-46.338462-10.713012-54.469034-.212084-1.152467-3.664582-11.437506-5.848247-15.858397-3.88868-7.87273-11.11513-18.81303-15.66286-28.691548-1.41369-3.070802-2.95356-6.12834-4.15894-8.985813-1.05691-2.5055-2.3853-6.048104-3.98519-10.62781 7.76867 16.25462 13.74556 26.89561 17.93067 31.92297 4.47771 5.378866 10.07689 12.617486 15.71167 18.11773 7.52679 7.347086 21.51321 13.795756 24.78426 19.677498 5.54192 9.965043 6.90193 16.603026 6.90193 32.758715 0 16.15569 8.485 45.064716 17.09732 51.156695 8.61232 6.09198 22.70389 10.047784 32.39745 9.382842 9.69356-.66494 29.24975-2.729445 34.91894-6.056144 5.66919-3.326698 3.84903-11.24826 5.66919-10.434006 1.21343.542836 4.32564.814254 9.33662.814254 2.49183 4.95115 4.38701 8.463908 5.68552 10.538274.81762 1.30613-3.80788-2.427166 7.97827 5.137622 11.20342 7.190765 40.79634 17.721207 35.146533 15.923772-11.593473-3.688364-36.47262-17.975107-54.83695-14.443352-18.36433 3.531755-41.34952 9.732006-40.836038 18.81224.342322 6.05349 12.13365 18.32969 35.37399 36.8286z" fill="url(#o)" opacity=".768569"/>
    <path d="M181.371976 740.168824c4.50284 2.31675 14.31003 3.911935 22.645395 0 8.33537-3.911935 0-5.638967-6.76256-6.492883-6.76256-.85391-9.34883-.05555-13.36399.87629s-7.02167 3.29985-2.51883 5.6166z" fill="#B9B9B9"/>
    <path d="M334.835953 480.856473c3.77584-7.848868 28.173954-4.868352 33.683175 8.978437 1.101683 2.768952 6.732757 16.34588 9.171437 32.87575 2.43868 16.529873 1.78343 26.28037 3.11066 37.18744 1.77345 14.5741-.413148 19.405468 0 23.80799.93972 10.01374-3.22999 62.200957-5.522637 83.928553-.244563 2.317752 2.660046 9.769602 2.411977 11.897507-.322453 2.765957-6.01076 3.80183-6.11806 3.870223-.963668.61426-7.348014.722096-6.64395-3.870223.03927-.256147-2.992287.23455-3.1868-2.344626-.306994-4.070602 1.817618-7.409863 1.595768-14.712705-.5007-16.48193-3.164615-39.74227-3.158913-41.88068.014952-5.60634 0-34.02964 0-43.56691s1.191153 3.22404-6.213997-26.81778c-4.201724-17.0459-19.45559-33.66759-22.33496-46.25154-2.19525-9.59411 1.572892-19.70608 3.2063-23.10145z" fill="url(#p)"/>
    <path d="M43.0603 466.85709c5.777073-6.64934 28.53504 2.252415 30.099034 16.987365.312753 2.946558 2.06768 17.450922-.06233 34.019552-2.130012 16.56863-5.408857 25.825135-7.086626 36.68819-2.241846 14.515286-5.664993 18.642256-6.460605 22.996752-1.828666 10.00855-20.93633 50.0021-28.349308 70.05878-.385022 1.04172-1.101677 11.87073-1.07912 12.89865.07836 3.57123.455632 5.82319-2.07746 7.34691-12.460025 7.49503-14.499222-.30714-13.266516-3.03463.48933-1.0827-.389-2.40959.75915-7.47563.80609-3.55677 4.13423-5.04631 5.44877-9.80016 4.18364-15.12953 7.76277-36.3819 8.63451-39.45362 1.53579-5.41161 9.23438-32.8701 11.82244-42.0824 2.58806-9.2123.27567 3.40823 1.27509-27.43794.56707-17.50229-9.65653-37.32311-9.02297-50.18906.48303-9.8091 6.86679-18.64633 9.36592-21.5228z" fill="url(#q)"/>
    <path d="M7.243164 714.502294c.646627 1.740752 2.2813 1.618905 4.38462 4.231436 1.02051 1.267575 2.17658 2.916434 3.556323 5.288403.91983 1.581313 2.098525 2.31391 3.53609 2.197792.59293.035358.924683-.003494.995262-.116554.67239-1.0771.33163-2.2367.27912-2.64458-.39679-3.0822-2.1821-4.28983-2.20019-4.43032-.00908-.07049-.31783-1.75229-1.36976-3.2996-.74121-1.09026-2.17898-1.82678-2.71208-3.13746-.37646-.92555-.35524-2.10609.06364-3.54161-.48382-3.69437-1.83156-6.13855-4.04323-7.33254-3.3175-1.79097-6.78688-2.64159-6.32897.74118.2609 1.92743 1.61505 4.00398 2.47192 6.41417.647 1.81988.74747 3.96129 1.36723 5.62971z" fill="url(#r)"/>
    <path d="M14.45429 718.67093c.70229 2.505377 2.54265 2.450032 4.870844 6.291054 1.129616 1.863627 2.406226 4.275582 3.924026 7.725064 1.011867 2.299654 2.32709 3.418815 3.945668 3.35748.666394.092313 1.040095.06113 1.121104-.09355.771752-1.473594.40514-3.136116.35194-3.716092-.402013-4.382606-2.392702-6.216184-2.411026-6.415956-.009195-.100233-.332302-2.498184-1.49324-4.759245-.818017-1.593182-2.424578-2.7364-3.005357-4.626094-.41013-1.33443-.36931-3.00067.12245-4.99872-.4911-5.25364-1.97187-8.80285-4.44231-10.64762-3.70566-2.76715-7.59564-4.2167-7.1292.5949.26576 2.74153 1.75902 5.77185 2.68816 9.23797.70157 2.61719.78381 5.64955 1.45692 8.05083z" fill="url(#s)"/>
    <path d="M1.614058 701.426993c1.223782 8.052577 3.927008 5.115165 4.70209 5.217645.48783.0645 1.507392-1.3287 2.83085-1.435613.779295-.062953 2.033015 1.240356 2.354106 1.07752.866394-.439375 1.558394 3.42512 4.357768 2.871876 1.006575-.19893 1.069202.00327 1.768467-.64512 1.24545-1.15484 3.6618-4.08109 4.87004-3.79997.16616.03866 1.69136 1.08436 2.70362 1.3356 1.6972.42125 3.43547-.28341 4.40429-2.66937.56547-1.39262 2.22216-5.16908 2.24877-9.68599.0093-1.57883-.31557-5.18351-.47213-7.79156-.0947-1.57747.65753-3.55206 2.25669-5.92379 2.31822 1.20438 3.80534 2.63949 4.46134 4.30534.984 2.49877 5.23038 6.74052 9.41612 5.84203 4.18574-.89849 1.6651-3.92347 1.08733-4.92612-.57777-1.00266-2.47048-5.00136-3.30399-5.92666-.83351-.9253-8.13341-11.2188-10.15553-11.34032-1.06475-.06398-5.74244-7.60569-11.19629-9.03525-4.90386-1.28539-9.50325 2.09532-11.39046 3.10973C4.019 674.0485-.00795 681.38711.47633 684.02274c.726428 3.95345-.08606 9.35168 1.13772 17.404255z" fill="url(#t)"/>
    <path d="M387.354408 723.188206c.205978 1.840946-1.351915 2.43009-2.08362 5.677177-.355016 1.575455-.659335 3.551544-.836804 6.273158-.118313 1.81441-.86455 2.97664-2.238712 3.48669-.528515.2852-.851178.39207-.967988.32062-1.11283-.68071-1.33272-1.86859-1.47195-2.25764-1.052074-2.93985.03317-4.7883-.014788-4.9223-.024062-.06723-.513374-1.71078-.258063-3.55109.179897-1.29671 1.162358-2.5732 1.049746-3.97907-.07953-.99277-.64161-2.04477-1.68626-3.15598-1.25349-3.52726-1.13861-6.3001.34463-8.31851 2.22486-3.02762 5.02145-5.27496 6.15552-2.03883.64616 1.84387.35643 4.28903.67693 6.82152.242 1.91223 1.13392 3.87985 1.33134 5.6443z" fill="url(#u)"/>
    <path d="M373.232527 732.356325c-.7179 2.505377-2.599164 2.450032-4.979103 6.291054-1.154724 1.86362-2.459708 4.27558-4.011242 7.72506-1.034356 2.29965-2.37881 3.41881-4.033365 3.35748-.681205.09231-1.063212.06113-1.14602-.09355-.788906-1.4736-.414145-3.13612-.359762-3.71609.410946-4.38261 2.44588-6.21619 2.464612-6.41596.0094-.10024.339688-2.49819 1.52643-4.75925.836197-1.59319 2.478465-2.7364 3.072153-4.6261.41924-1.33443.377514-3.00068-.12518-4.99873.502016-5.25365 2.015697-8.80286 4.541042-10.64762 3.788017-2.76716 7.764456-4.21671 7.287653.59489-.27167 2.74153-1.798115 5.77185-2.747912 9.23797-.71717 2.61718-.801237 5.64955-1.489306 8.05082z" fill="url(#s)"/>
    <path d="M385.478632 711.949715c-1.25098 8.052576-4.01429 5.115164-4.806596 5.217644-.498673.0645-1.540897-1.3287-2.89377-1.43562-.796616-.06296-2.0782 1.24035-2.40643 1.07752-.88565-.43938-1.59303 3.42512-4.454622 2.87187-1.028948-.19893-2.11069-.59324-2.825496-1.24164-.703957-.63855.401848-2.83945-.62288-3.7195-.82853-.71155-2.957616 2.32166-3.509786 2.44735-.169856.03866-1.556852-.84696-2.591615-.59572-1.73493.42124-3.511833-.28341-4.502186-2.66937-.57804-1.39263-2.27154-5.16909-2.29875-9.686-.00951-1.57884.32258-5.18352.48262-7.79156.0968-1.57748-.67215-3.55207-2.30685-5.92379-2.36975 1.20437-3.88992 2.63948-4.5605 4.30533-1.00587 2.49876-5.34664 6.74051-9.62541 5.84202-4.27877-.89849-1.7021-3.92347-1.11149-4.92613.59061-1.00266 2.5254-5.00136 3.37743-5.92667.85204-.925304 8.31419-11.218808 10.38125-11.340324 1.08842-.063988 5.87007-7.60569 11.44514-9.03525 5.01286-1.285397 9.71447 2.095315 11.64362 3.109724 8.72795 12.04157 12.8444 19.380173 12.34935 22.015805-.74257 3.95345.08798 9.35168-1.163 17.40426z" fill="url(#t)"/>
    <path d="M21.7662 708.236386c.641437 2.1088 2.63416 7.877524 4.37972 11.576907 1.16551 2.470077 1.52795 8.019496 1.64504 7.873722.036017-.04484 1.19192 3.231262 2.31586 5.25541 1.19009 2.14328-.385398.87926 1.428245 1.460722 2.550724.817773 4.244263-3.222074 2.872257-7.02723-1.372006-3.805158-1.344308.208467-2.003896-6.550276-.129546-1.32745-.119492-3.2581-.71687-6.28056-.350302-1.77237-2.005782-4.32072-1.943034-5.79504.14953-3.51337-.8542-6.88708-.95578-7.11723-.24616-.55772-5.21593-3.6823-7.02154-2.20278-1.025597.84038-2.626673 1.71785-2.895017 3.11632-.395928 2.06338 2.844927 5.52538 2.895016 5.69005z" fill="url(#v)"/>
    <path d="M363.25105 718.313423c-1.991726 1.439956-4.664785 7.691396-7.409932 11.167172-1.832935 2.320775-3.49086 8.139005-3.585367 7.95226-.02907-.05744-2.03493 3.125074-3.72107 4.981653-1.78537 1.965847.22018 1.040453-1.88975 1.174502-2.96743.188528-3.89487-4.571257-1.53299-8.25983 2.36189-3.688573 1.41843.58226 3.67554-6.445443.44331-1.380277.87165-3.440916 2.21077-6.502654.78526-1.795408 3.17028-4.06839 3.43733-5.656722.63638-3.78507 2.49852-7.11238 2.66166-7.3305.39532-.52856 5.88344-2.90066 7.51566-.83999 2.29501 2.89743 3.67924 6.11503-1.36182 9.75956z" fill="url(#w)"/>
    <ellipse fill="#503636" cx="111.5" cy="182.5" rx="9.5" ry="8.5"/>
    <ellipse fill="#503636" cx="109.5" cy="162.5" rx="9.5" ry="8.5"/>
    <ellipse fill="#503636" cx="263.5" cy="185.5" rx="9.5" ry="8.5"/>
    <ellipse fill="#503636" cx="266.5" cy="166.5" rx="9.5" ry="8.5"/>
  </g>
</svg>
