<svg xmlns="http://www.w3.org/2000/svg" xmlns:xlink="http://www.w3.org/1999/xlink" width="736.98529" height="810.41901" version="1">
  <defs>
    <linearGradient id="d">
      <stop offset="0"/>
      <stop offset="1" stop-opacity="0"/>
    </linearGradient>
    <linearGradient id="a">
      <stop offset="0" stop-color="#fff"/>
      <stop offset="1" stop-color="#fff" stop-opacity="0"/>
    </linearGradient>
    <linearGradient id="b">
      <stop offset="0" stop-color="#fff"/>
      <stop offset="1" stop-color="#fff" stop-opacity="0"/>
    </linearGradient>
    <linearGradient id="c">
      <stop offset="0" stop-color="#fff"/>
      <stop offset="1" stop-color="#fff" stop-opacity="0"/>
    </linearGradient>
    <linearGradient id="e">
      <stop offset="0" stop-color="#b9d4ef"/>
      <stop offset="1" stop-color="#b9d4ef" stop-opacity="0"/>
    </linearGradient>
    <linearGradient xlink:href="#a" id="f" gradientUnits="userSpaceOnUse" gradientTransform="matrix(0.746498,0,0,0.832665,5.119621,310.0848)" x1="439.74231" y1="604.86102" x2="464.02814" y2="604.86102"/>
    <linearGradient xlink:href="#a" id="g" gradientUnits="userSpaceOnUse" gradientTransform="matrix(0.746498,0,0,0.832665,-32.4724,312.5831)" x1="439.74231" y1="604.86102" x2="464.02814" y2="604.86102"/>
    <linearGradient xlink:href="#a" id="i" gradientUnits="userSpaceOnUse" gradientTransform="matrix(0.746498,0,0,0.832665,73.33029,88.24264)" x1="439.74231" y1="604.86102" x2="464.02814" y2="604.86102"/>
    <linearGradient xlink:href="#b" id="j" gradientUnits="userSpaceOnUse" gradientTransform="matrix(0.55,0,0,1.309798,170.8393,-52.18595)" x1="379.64288" y1="195.83157" x2="383.21432" y2="195.83157"/>
    <linearGradient xlink:href="#b" id="k" gradientUnits="userSpaceOnUse" x1="364.16" y1="163.52896" x2="380.77701" y2="163.52896"/>
    <linearGradient xlink:href="#b" id="l" gradientUnits="userSpaceOnUse" gradientTransform="matrix(0.55,0,0,1.309795,232.7713,-118.3585)" x1="379.64288" y1="195.83157" x2="383.21432" y2="195.83157"/>
    <linearGradient xlink:href="#b" id="m" gradientUnits="userSpaceOnUse" x1="364.16" y1="163.52896" x2="380.77701" y2="163.52896"/>
    <linearGradient xlink:href="#c" id="p" gradientUnits="userSpaceOnUse" gradientTransform="matrix(0.685417,0,0,0.575,81.34232,124.4324)" x1="344.28571" y1="242.36218" x2="515.71429" y2="242.36218"/>
    <linearGradient xlink:href="#b" id="s" gradientUnits="userSpaceOnUse" x1="788" y1="541.36218" x2="828" y2="541.36218"/>
    <linearGradient xlink:href="#b" id="t" gradientUnits="userSpaceOnUse" x1="788" y1="541.36218" x2="828" y2="541.36218"/>
    <linearGradient xlink:href="#b" id="u" gradientUnits="userSpaceOnUse" x1="788" y1="541.36218" x2="828" y2="541.36218"/>
    <linearGradient xlink:href="#b" id="r" gradientUnits="userSpaceOnUse" x1="788" y1="541.36218" x2="828" y2="541.36218"/>
    <linearGradient xlink:href="#d" id="v" gradientUnits="userSpaceOnUse" x1="587.2782" y1="205.4695" x2="713.50989" y2="341.23401"/>
    <linearGradient xlink:href="#b" id="q" gradientUnits="userSpaceOnUse" gradientTransform="matrix(0.408562,0,0,0.408562,-93.97752,193.9094)" x1="344.08658" y1="176.05177" x2="823.71924" y2="604.97137"/>
    <linearGradient xlink:href="#e" id="o" gradientUnits="userSpaceOnUse" gradientTransform="matrix(1.372777,0,0,1.372777,-199.5295,-165.7496)" x1="221.42853" y1="348.71686" x2="472.85721" y2="547.92871"/>
    <linearGradient xlink:href="#a" id="n" gradientUnits="userSpaceOnUse" gradientTransform="matrix(1.372777,0,0,1.372777,-800.0213,-330.0906)" x1="597.58496" y1="432.79868" x2="1107.8292" y2="791.71191"/>
    <linearGradient xlink:href="#a" id="h" gradientUnits="userSpaceOnUse" gradientTransform="matrix(1.024776,0,0,1.143064,-72.79648,3.357684)" x1="439.74231" y1="604.86102" x2="464.02814" y2="604.86102"/>
  </defs>
  <g transform="translate(-2.8569722,-45.864862) matrix(1.372777,0,0,1.372777,-187.7628,-173.594)">
    <rect width="24.285812" height="85.684364" x="-359.25052" y="794.04578" rx="62.438553" ry="7.960916" transform="matrix(-0.959822,0.280609,0.280609,0.959822,0,0)" fill="#b57c00"/>
    <path d="M342.45092 778.0575c5.02182 0 9.06465 3.54359 9.06465 7.94528v55.45573c0 4.40169-4.04283 7.94529-9.06465 7.94529s-9.06466-3.5436-9.06466-7.94529v-55.45573c0-4.40169 4.04284-7.94528 9.06466-7.94528z" transform="matrix(0.976486,-0.215581,0.283388,0.959005,0,0)" fill="url(#f)"/>
  </g>
  <g transform="translate(-2.8569722,-45.864862) matrix(1.372777,0,0,1.372777,-193.2539,-185.949)">
    <rect width="24.28582" height="85.684395" x="-321.75055" y="794.02197" rx="62.438572" ry="7.960919" transform="matrix(-0.959822,0.280609,0.280609,0.959822,0,0)" fill="#cc7c04"/>
    <path d="M304.85888 780.55609c5.02181 0 9.06465 3.5436 9.06465 7.94529v55.45577c0 4.40169-4.04284 7.94529-9.06465 7.94529-5.02182 0-9.06466-3.5436-9.06466-7.94529v-55.45577c0-4.40169 4.04284-7.94529 9.06466-7.94529z" transform="matrix(0.976486,-0.215581,0.283388,0.959005,0,0)" fill="url(#g)"/>
  </g>
  <path d="M192.415044 696.514596c8.86387 2.5914 14.632035 9.355922 12.933107 15.167097l-26.87349 91.920684c-1.69892 5.811166-10.20255 8.403266-19.06642 5.811867-8.86387-2.591398-14.63203-9.35593-12.9331-15.167096l26.873494-91.920684c1.698928-5.811176 10.202548-8.403267 19.066418-5.811868z" fill="#b57c00"/>
  <path d="M390.28443 645.78052c6.89384 0 12.44376 4.86457 12.44376 10.90712v76.12843c0 6.04254-5.54992 10.90712-12.44376 10.90712-6.89385 0-12.44376-4.86458-12.44376-10.90712v-76.12843c0-6.04255 5.54991-10.90712 12.44376-10.90712z" transform="translate(-2.8569722,-45.864862) matrix(0.938784,0.344505,-0.277963,0.960592,0,0)" fill="url(#h)"/>
  <g transform="translate(-2.8569722,-45.864862) matrix(1.372777,0,0,1.372777,-187.7628,-173.594)">
    <rect width="24.285828" height="85.684425" x="402.44724" y="573.43549" rx="62.438595" ry="7.960922" transform="matrix(0.959822,0.280609,-0.280609,0.959822,0,0)" fill="#cc7c04"/>
    <path d="M410.66171 556.21545c5.02182 0 9.06465 3.5436 9.06465 7.94529v55.45575c0 4.40169-4.04283 7.94529-9.06465 7.94529-5.02183 0-9.06466-3.5436-9.06466-7.94529v-55.45575c0-4.40169 4.04283-7.94529 9.06466-7.94529z" transform="matrix(0.938785,0.344505,-0.277963,0.960592,0,0)" fill="url(#i)"/>
  </g>
  <g transform="translate(-2.8569722,-45.864862) matrix(1.372777,0,0,1.372777,-187.7628,-173.594) matrix(0.983223,-0.182405,0.182405,0.983223,-30.2281,84.09401)">
    <rect ry="7.284503" rx="6.764181" y="150.93361" x="379.28571" height="105.71429" width="5" fill="#000004"/>
    <path d="M380.62503 154.86218c.5441 0 .98214 3.24889.98214 7.28451v84.33406c0 4.03561-.43804 7.2845-.98214 7.2845-.54411 0-.98215-3.24889-.98215-7.2845v-84.33406c0-4.03562.43804-7.28451.98215-7.28451z" fill="url(#j)"/>
  </g>
  <path d="M326.937473 4.816547a5.581528 4.750237 0 1 1-11.163057 0 5.581528 4.750237 0 1 1 11.163057 0z"/>
  <path d="M380.77701 163.52896c0 3.90323-3.72221 7.07107-8.3085 7.07107-4.5863 0-8.30851-3.16784-8.30851-7.07107 0-3.90323 3.72221-7.07107 8.30851-7.07107 4.58629 0 8.3085 3.16784 8.3085 7.07107z" transform="translate(-2.8569722,-45.864862) matrix(1.372777,0,0,1.372777,-187.7628,-173.594) translate(0.375,1) matrix(0.387715,0,0,0.387715,227.3062,99.05323)" fill="url(#k)"/>
  <g transform="translate(-2.8569722,-45.864862) matrix(1.372777,0,0,1.372777,-176.0942,-178.0555)">
    <rect transform="matrix(-0.983223,-0.182405,-0.182405,0.983223,0,0)" ry="7.2845" rx="6.764178" y="86.681274" x="-445.63678" height="105.71423" width="4.999998" fill="#000004"/>
    <path d="M442.55667 88.689232c.5441 0 .98214 3.248884.98214 7.284492v84.333926c0 4.03561-.43804 7.28449-.98214 7.28449-.54411 0-.98215-3.24888-.98215-7.28449V95.973724c0-4.035608.43804-7.284492.98215-7.284492z" transform="matrix(0.982682,0.185298,-0.185298,0.982682,0,0)" fill="url(#l)"/>
  </g>
  <path d="M402.698985 4.750236a5.581528 4.750237 0 1 1-11.163056 0 5.581528 4.750237 0 1 1 11.16305 0z"/>
  <path d="M380.77701 163.52896c0 3.90323-3.72221 7.07107-8.3085 7.07107-4.5863 0-8.30851-3.16784-8.30851-7.07107 0-3.90323 3.72221-7.07107 8.30851-7.07107 4.58629 0 8.3085 3.16784 8.3085 7.07107z" transform="translate(-2.8569722,-45.864862) matrix(1.372777,0,0,1.372777,-176.0942,-178.0555) translate(47.06351,4.201677) matrix(0.387715,0,0,0.387715,227.3062,99.05323)" fill="url(#m)"/>
  <path d="M89.24426 154.433628h562.026798c47.4857 0 85.71426 27.39714 85.71426 61.42856v435.45063c0 34.03142-38.22856 61.42855-85.71426 61.42855h-562.0268c-47.4857 0-85.714263-27.39713-85.714263-61.42855v-435.45063c0-34.03142 38.228562-61.42856 85.714264-61.42856z" fill="#cc7c04"/>
  <path d="M88.571236 198.44562H650.59803c47.4857 0 85.71426 27.39713 85.71426 61.42855V695.3248c0 34.03142-38.22856 61.42856-85.71426 61.42856H88.571236c-47.485702 0-85.714264-27.39714-85.714264-61.42856V259.87417c0-34.03142 38.228562-61.42855 85.714264-61.42855z" opacity=".5" fill="url(#n)" transform="translate(-2.8569722,-45.864862)"/>
  <path d="M122.583248 189.733668h397.29351c47.48571 0 85.71427 27.39713 85.71427 61.42855v347.80933c0 34.03142-38.22856 61.42856-85.71427 61.42856h-397.29351c-47.485706 0-85.714268-27.39714-85.714268-61.42856v-347.80933c0-34.03142 38.228562-61.42855 85.714268-61.42855z" fill="#83b5d9"/>
  <path d="M158.77903 274.82071h205.10474c47.4857 0 85.71426 27.39714 85.71426 61.42856v188.75659c0 34.03142-38.22856 61.42856-85.71426 61.42856H158.77903c-47.4857 0-85.714264-27.39714-85.714264-61.42856V336.24927c0-34.03142 38.228564-61.42856 85.714264-61.42856z" fill="url(#o)" transform="translate(-2.8569722,-45.864862)"/>
  <g transform="translate(-2.8569722,-45.864862) matrix(1.372777,0,0,1.372777,-187.7628,-173.594)">
    <rect width="171.42857" height="14.285712" x="313.57144" y="258.79077" rx="6.764181" ry="7.284503" fill="#000004"/>
    <rect width="117.49998" height="8.214284" x="317.32141" y="259.68362" rx="6.764181" ry="7.284503" fill="url(#p)"/>
  </g>
  <path d="M166.5517 341.34464h41.35688c19.1981 0 34.65361 12.36054 34.65361 27.71423v44.30421c0 15.35369-15.45551 27.71424-34.65361 27.71424H166.5517c-19.1981 0-34.65361-12.36055-34.65361-27.71424v-44.30421c0-15.35369 15.45551-27.71423 34.65361-27.71423z" fill="url(#q)" transform="translate(-2.8569722,-45.864862)"/>
  <path d="M682.816497 247.907604l28.696783-5.039495c10.22232-1.79516 18.38905 3.54853 18.31106 11.98136l-1.65901 179.382592c-.07799 8.432836-8.370294 16.666925-18.592616 18.462085l-28.696783 5.039495c-10.22232 1.79516-18.38906-3.548524-18.31107-11.98136l1.65901-179.382597c.078-8.43283 8.37031-16.66693 18.59263-18.46209z"/>
  <path d="M88.654897 154.778678h474.33319c47.4857 0 85.71426 27.39713 85.71426 61.42855v435.45063c0 34.03142-38.22856 61.42856-85.71426 61.42856H88.654897c-47.4857 0-85.714263-27.39714-85.714263-61.42856v-435.45063c0-34.03142 38.228562-61.42855 85.714264-61.42855z" fill="none" stroke="#000" stroke-width="1.288099" stroke-linejoin="round"/>
  <path d="M625.83321 666.286543a21.3017 20.236615 0 1 1-42.6034 0 21.3017 20.236615 0 1 1 42.6034 0z" stroke="#000" stroke-linejoin="round" stroke-width="1.06509"/>
  <path d="M828 541.36218c0 10.488-8.96 19-20 19s-20-8.512-20-19 8.96-19 20-19 20 8.512 20 19z" transform="translate(-2.8569722,-45.864862) matrix(1.065085,0,0,1.065085,10.39492,21.83224) translate(-247.8857,106.8278)" opacity=".755187" fill="url(#r)"/>
  <path d="M638.683898 536.25002a14.68552 13.951244 0 1 1-29.37104 0 14.68552 13.951244 0 1 1 29.37104 0z" stroke="#000" stroke-linejoin="round" stroke-width=".73428"/>
  <path d="M828 541.36218c0 10.488-8.96 19-20 19s-20-8.512-20-19 8.96-19 20-19 20 8.512 20 19z" transform="translate(-2.8569722,-45.864862) matrix(0.734276,0,0,0.734276,215.2844,106.2047) translate(-247.8857,106.8278)" opacity=".755187" fill="url(#s)"/>
  <path d="M638.683898 571.94222a14.68552 13.951244 0 1 1-29.37104 0 14.68552 13.951244 0 1 1 29.37104 0z" stroke="#000" stroke-linejoin="round" stroke-width=".73428"/>
  <path d="M828 541.36218c0 10.488-8.96 19-20 19s-20-8.512-20-19 8.96-19 20-19 20 8.512 20 19z" transform="translate(-2.8569722,-45.864862) matrix(0.734276,0,0,0.734276,215.2844,141.8969) translate(-247.8857,106.8278)" opacity=".755187" fill="url(#t)"/>
  <path d="M638.683898 500.55784a14.68552 13.951244 0 1 1-29.37104 0 14.68552 13.951244 0 1 1 29.37104 0z" stroke="#000" stroke-linejoin="round" stroke-width=".73428"/>
  <path d="M828 541.36218c0 10.488-8.96 19-20 19s-20-8.512-20-19 8.96-19 20-19 20 8.512 20 19z" transform="translate(-2.8569722,-45.864862) matrix(0.734276,0,0,0.734276,215.2844,70.51252) translate(-247.8857,106.8278)" opacity=".755187" fill="url(#u)"/>
  <path d="M580 202.11954l89.3934-.94975s64.15134 10.98212 69.55635 55.07107c.56497 38.74264-.12132 106.26346-.12132 106.26346l-85.75736-.14214s-.59189-75.94975-3.65686-118.48528C619.47918 199.22004 580 202.11954 580 202.11954z" opacity=".485477" fill="url(#v)" fill-rule="evenodd" transform="translate(-2.8569722,-45.864862)"/>
</svg>
